<?xml version="1.0" encoding="UTF-8" standalone="no"?>
<svg xmlns="http://www.w3.org/2000/svg" version="1.1" width="85.51416mm" height="19.947104mm">
  <path
     d="M 186.6582 0 L 179.62695 35.558594 C 178.40625 41.637693 177.79492 45.55664 177.79492 47.314453 C 177.79492 53.124999 181.71387 56.029297 189.55078 56.029297 L 190.35547 50.902344 C 186.86426 50.902344 185.11914 49.41406 185.11914 46.435547 C 185.11914 44.677734 185.81543 40.33203 187.20703 33.398438 L 193.9082 0 L 186.6582 0 z M 16.919922 15.34375 C 12.891602 15.34375 9.5332019 17.101561 6.8476562 20.617188 L 4.5410156 16.076172 L 0 16.076172 L 0 55.296875 L 6.9589844 55.296875 L 6.9589844 26.367188 C 7.6181643 25.073241 8.7285185 23.888673 10.291016 22.814453 C 11.877929 21.740233 13.366206 21.203125 14.757812 21.203125 C 17.150386 21.203125 19.067379 21.765625 20.507812 22.888672 C 21.972652 23.987305 22.705078 25.500974 22.705078 27.429688 L 22.705078 55.296875 L 29.664062 55.296875 L 29.664062 26.294922 C 30.201176 24.976562 31.201176 23.802737 32.666016 22.777344 C 34.130862 21.727537 35.706059 21.203125 37.390625 21.203125 C 42.737304 21.203125 45.410156 24.291991 45.410156 30.46875 L 45.410156 55.296875 L 52.369141 55.296875 L 52.369141 29.076172 C 52.369141 24.730466 51.256836 21.363276 49.035156 18.970703 C 46.813477 16.55371 43.677733 15.34375 39.625 15.34375 C 37.378907 15.34375 35.192386 15.84473 33.068359 16.845703 C 30.94434 17.846683 29.492191 19.092771 28.710938 20.582031 C 26.464844 17.090818 22.535155 15.34375 16.919922 15.34375 z M 117.07812 15.34375 C 110.7793 15.34375 105.81152 17.235352 102.17383 21.019531 C 98.560551 24.803711 96.753906 29.822266 96.753906 36.072266 C 96.753906 42.200192 98.499031 47.057618 101.99023 50.646484 C 105.48145 54.235351 109.89941 56.029297 115.24609 56.029297 C 120.76367 56.029297 125.38965 54.821283 129.125 52.404297 L 126.37891 46.544922 C 123.20508 48.961915 120.05664 50.169922 116.93164 50.169922 C 112.90332 50.169922 109.75293 48.974611 107.48242 46.582031 C 105.21191 44.165038 104.07617 40.662105 104.07617 36.072266 C 104.07617 31.458006 105.18848 27.832032 107.41016 25.195312 C 109.63184 22.534179 112.63379 21.203125 116.41797 21.203125 C 118.15137 21.203125 119.90918 21.521483 121.69141 22.15625 C 123.49805 22.791017 124.75488 23.461915 125.46289 24.169922 L 128.90625 19.263672 C 127.7832 18.360352 126.03809 17.481446 123.66992 16.626953 C 121.30176 15.77246 119.10449 15.34375 117.07812 15.34375 z M 152.34375 15.34375 C 147.53418 15.34375 143.37109 17.090818 139.85547 20.582031 C 135.92481 24.488277 133.95898 29.674805 133.95898 36.144531 C 133.95898 42.370117 135.87598 47.327152 139.70898 51.013672 C 143.15136 54.358398 147.33789 56.029297 152.26953 56.029297 C 155.6875 56.029297 158.78907 55.517574 161.57227 54.492188 C 163.79395 53.710934 165.44141 52.783204 166.51562 51.708984 L 163.58594 46.691406 C 160.9248 49.010739 157.60449 50.169922 153.625 50.169922 C 150.13379 50.169922 147.27832 49.095705 145.05664 46.947266 C 142.54199 44.481446 141.2832 40.955074 141.2832 36.365234 L 169.55469 36.365234 C 169.9209 35.071288 170.10547 33.655274 170.10547 32.117188 C 170.10547 27.112308 168.56641 23.095706 165.49023 20.068359 C 162.31641 16.918946 157.93457 15.34375 152.34375 15.34375 z M 253.45508 15.34375 C 249.3291 15.34375 245.84961 16.454102 243.01758 18.675781 C 240.18555 20.873048 238.76953 23.791995 238.76953 27.429688 C 238.76953 28.992187 239.16016 30.467775 239.94141 31.859375 C 240.74707 33.226562 241.94238 34.362305 243.5293 35.265625 L 248.69336 38.123047 C 250.52442 39.172853 251.80664 40.10059 252.53906 40.90625 C 253.2959 41.711917 253.67383 42.626957 253.67383 43.652344 C 253.67383 45.654297 252.96679 47.24023 251.55078 48.412109 C 250.13477 49.583983 248.33887 50.169922 246.16602 50.169922 C 244.89648 50.169922 243.37207 49.7793 241.58984 48.998047 C 239.80762 48.192387 238.44043 47.313475 237.48828 46.361328 L 233.86133 52.953125 C 237.13281 55.003905 240.83301 56.029297 244.95898 56.029297 C 249.64648 56.029297 253.5039 54.808594 256.53125 52.367188 C 259.583 49.925788 261.10742 46.605469 261.10742 42.40625 C 261.10742 40.819337 260.71679 39.356445 259.93555 38.013672 C 259.15429 36.670899 257.97168 35.57129 256.38477 34.716797 L 251.25781 31.933594 C 249.40235 30.932621 248.09473 30.028323 247.33789 29.222656 C 246.58106 28.416996 246.20312 27.453125 246.20312 26.330078 C 246.20312 24.791992 246.86328 23.560546 248.18164 22.632812 C 249.52441 21.680659 251.11035 21.203125 252.94141 21.203125 C 255.70019 21.203125 258.27539 22.302734 260.66797 24.5 L 263.78125 18.054688 C 259.75293 16.248048 256.31152 15.34375 253.45508 15.34375 z M 288.31836 15.34375 C 281.99511 15.34375 276.78125 17.846683 272.67969 22.851562 C 268.57813 27.856449 266.52734 33.862308 266.52734 40.869141 C 266.52734 45.678713 267.78613 49.413086 270.30078 52.074219 C 272.81543 54.710932 276.42871 56.029297 281.14062 56.029297 C 285.90137 56.029297 289.97754 54.687499 293.37109 52.001953 C 296.78906 49.316407 299.24316 45.947264 300.73242 41.894531 C 302.2461 37.841798 303.00195 33.935547 303.00195 30.175781 C 303.00195 25.439455 301.74512 21.790042 299.23047 19.226562 C 296.71582 16.638676 293.0791 15.34375 288.31836 15.34375 z M 57.751953 16.076172 L 68.371094 43.359375 C 69.56738 46.435541 70.543941 49.023434 71.300781 51.123047 C 72.057614 53.19824 72.4375 55.310545 72.4375 57.458984 C 72.4375 59.412104 71.399412 61.059571 69.324219 62.402344 C 67.249019 63.769537 64.758789 64.453125 61.853516 64.453125 L 61.853516 70.677734 C 65.417969 70.677734 68.640625 69.847653 71.521484 68.1875 C 74.426757 66.52734 76.331055 64.453124 77.234375 61.962891 L 93.859375 16.076172 L 86.755859 16.076172 L 76.392578 46.398438 L 64.855469 16.076172 L 57.751953 16.076172 z M 199.62109 16.076172 L 204.5293 45.300781 C 205.65235 52.087894 207.93457 55.480469 211.37695 55.480469 C 210.54687 58.214842 209.17968 60.265626 207.27539 61.632812 C 205.37109 62.999999 202.14843 63.683594 197.60742 63.683594 L 197.60742 70.677734 C 203.29589 70.677734 207.51855 69.824221 210.27734 68.115234 C 213.03613 66.406255 215.2461 63.695315 216.90625 59.984375 L 236.57227 16.076172 L 228.66211 16.076172 L 214.52539 48.742188 C 212.93848 48.742187 211.93848 47.33887 211.52344 44.53125 L 207.20117 16.076172 L 199.62109 16.076172 z M 287.32812 21.019531 C 292.87012 21.019531 295.64258 24.169924 295.64258 30.46875 C 295.64258 35.717776 294.42188 40.34375 291.98047 44.347656 C 289.56348 48.351556 286.292 50.353516 282.16602 50.353516 C 276.62403 50.353516 273.85156 47.045893 273.85156 40.429688 C 273.85156 37.744141 274.3291 34.83789 275.28125 31.712891 C 276.2334 28.587891 277.7705 26.025391 279.89453 24.023438 C 282.04296 22.021484 284.52051 21.019531 287.32812 21.019531 z M 152.67383 21.203125 C 155.99413 21.203125 158.61816 22.22851 160.54688 24.279297 C 162.30469 26.159177 163.18359 28.502927 163.18359 31.310547 L 141.4668 31.310547 C 141.73535 28.478514 142.87109 26.111331 144.87305 24.207031 C 146.97266 22.205078 149.57324 21.203125 152.67383 21.203125 z "
     style="fill:#5c5c5b;stroke:none;" />
</svg>
